<?xml version="1.0" encoding="utf-8"?>
<!DOCTYPE svg
  PUBLIC '-//W3C//DTD SVG 1.0//EN'
  'http://www.w3.org/TR/2001/REC-SVG-20010904/DTD/svg10.dtd'>
<svg width="900" height="300" preserveAspectRatio="xMinYMin meet" viewBox="0 0 900 300" xmlns="http://www.w3.org/2000/svg" version="1.0" fill-rule="evenodd" xmlns:xlink="http://www.w3.org/1999/xlink">
	<title>...</title>
	<desc>...</desc>
	<clipPath id="clip">
		<rect x="0" y="0" width="900" height="300"/>
	</clipPath>
	<g id="group" transform="scale(1,-1) translate(0,-300)" style="clip-path: url(#clip)">
		<g transform="">
			<rect x="220" y="110" width="420" height="90" style="stroke: rgb(0%,0%,0%); stroke-linecap: butt; stroke-width: 2; fill: rgb(0%,0%,0%); fill-rule: evenodd;"/>
			<path d="M 240,110 L 240,200 Z" style="stroke: rgb(0%,0%,0%); stroke-linecap: butt; stroke-width: 1;"/>
			<path d="M 265,110 L 265,200 Z" style="stroke: rgb(0%,0%,0%); stroke-linecap: butt; stroke-width: 1;"/>
			<path d="M 290,110 L 290,200 Z" style="stroke: rgb(0%,0%,0%); stroke-linecap: butt; stroke-width: 1;"/>
			<path d="M 315,110 L 315,200 Z" style="stroke: rgb(0%,0%,0%); stroke-linecap: butt; stroke-width: 1;"/>
			<path d="M 340,110 L 340,200 Z" style="stroke: rgb(0%,0%,0%); stroke-linecap: butt; stroke-width: 1;"/>
			<path d="M 365,110 L 365,200 Z" style="stroke: rgb(0%,0%,0%); stroke-linecap: butt; stroke-width: 1;"/>
			<path d="M 390,110 L 390,200 Z" style="stroke: rgb(0%,0%,0%); stroke-linecap: butt; stroke-width: 1;"/>
			<path d="M 415,110 L 415,200 Z" style="stroke: rgb(0%,0%,0%); stroke-linecap: butt; stroke-width: 1;"/>
			<path d="M 440,110 L 440,200 Z" style="stroke: rgb(0%,0%,0%); stroke-linecap: butt; stroke-width: 1;"/>
			<path d="M 465,110 L 465,200 Z" style="stroke: rgb(0%,0%,0%); stroke-linecap: butt; stroke-width: 1;"/>
			<path d="M 490,110 L 490,200 Z" style="stroke: rgb(0%,0%,0%); stroke-linecap: butt; stroke-width: 1;"/>
			<path d="M 515,110 L 515,200 Z" style="stroke: rgb(0%,0%,0%); stroke-linecap: butt; stroke-width: 1;"/>
			<path d="M 540,110 L 540,200 Z" style="stroke: rgb(0%,0%,0%); stroke-linecap: butt; stroke-width: 1;"/>
			<path d="M 565,110 L 565,200 Z" style="stroke: rgb(0%,0%,0%); stroke-linecap: butt; stroke-width: 1;"/>
			<path d="M 590,110 L 590,200 Z" style="stroke: rgb(0%,0%,0%); stroke-linecap: butt; stroke-width: 1;"/>
			<path d="M 615,110 L 615,200 Z" style="stroke: rgb(0%,0%,0%); stroke-linecap: butt; stroke-width: 1;"/>
			<text x="340" y="50" style="font-family: Times-Roman; font-size: 10px;fill: rgb(0%,0%,0%); stroke:none;" transform="translate(0,100) scale(1,-1)">1000 mm Cleaning Drum</text>
			<text x="670" y="150" style="font-family: Times-Roman; font-size: 10px;fill: rgb(0%,0%,0%); stroke:none;" transform="translate(0,300) scale(1,-1)">600 mm Diameter</text>
		</g>
	</g>
</svg>
