<?xml version="1.0" encoding="utf-8"?>
<!DOCTYPE svg
  PUBLIC '-//W3C//DTD SVG 1.0//EN'
  'http://www.w3.org/TR/2001/REC-SVG-20010904/DTD/svg10.dtd'>
<svg width="1000" height="320" preserveAspectRatio="xMinYMin meet" viewBox="0 0 1000 320" xmlns="http://www.w3.org/2000/svg" version="1.0" fill-rule="evenodd" xmlns:xlink="http://www.w3.org/1999/xlink">
	<title>...</title>
	<desc>...</desc>
	<clipPath id="clip">
		<rect x="0" y="0" width="1000" height="320"/>
	</clipPath>
	<g id="group" transform="scale(1,-1) translate(0,-320)" style="clip-path: url(#clip)">
		<g transform="">
			<rect x="100" y="120" width="720" height="80" style="stroke: rgb(0%,0%,0%); stroke-linecap: butt; stroke-width: 2; fill: rgb(0%,0%,0%); fill-rule: evenodd;"/>
			<path d="M 120,120 L 120,200 Z" style="stroke: rgb(0%,0%,0%); stroke-linecap: butt; stroke-width: 1;"/>
			<path d="M 155,120 L 155,200 Z" style="stroke: rgb(0%,0%,0%); stroke-linecap: butt; stroke-width: 1;"/>
			<path d="M 190,120 L 190,200 Z" style="stroke: rgb(0%,0%,0%); stroke-linecap: butt; stroke-width: 1;"/>
			<path d="M 225,120 L 225,200 Z" style="stroke: rgb(0%,0%,0%); stroke-linecap: butt; stroke-width: 1;"/>
			<path d="M 260,120 L 260,200 Z" style="stroke: rgb(0%,0%,0%); stroke-linecap: butt; stroke-width: 1;"/>
			<path d="M 295,120 L 295,200 Z" style="stroke: rgb(0%,0%,0%); stroke-linecap: butt; stroke-width: 1;"/>
			<path d="M 330,120 L 330,200 Z" style="stroke: rgb(0%,0%,0%); stroke-linecap: butt; stroke-width: 1;"/>
			<path d="M 365,120 L 365,200 Z" style="stroke: rgb(0%,0%,0%); stroke-linecap: butt; stroke-width: 1;"/>
			<path d="M 400,120 L 400,200 Z" style="stroke: rgb(0%,0%,0%); stroke-linecap: butt; stroke-width: 1;"/>
			<path d="M 435,120 L 435,200 Z" style="stroke: rgb(0%,0%,0%); stroke-linecap: butt; stroke-width: 1;"/>
			<path d="M 470,120 L 470,200 Z" style="stroke: rgb(0%,0%,0%); stroke-linecap: butt; stroke-width: 1;"/>
			<path d="M 505,120 L 505,200 Z" style="stroke: rgb(0%,0%,0%); stroke-linecap: butt; stroke-width: 1;"/>
			<path d="M 540,120 L 540,200 Z" style="stroke: rgb(0%,0%,0%); stroke-linecap: butt; stroke-width: 1;"/>
			<path d="M 575,120 L 575,200 Z" style="stroke: rgb(0%,0%,0%); stroke-linecap: butt; stroke-width: 1;"/>
			<path d="M 610,120 L 610,200 Z" style="stroke: rgb(0%,0%,0%); stroke-linecap: butt; stroke-width: 1;"/>
			<path d="M 645,120 L 645,200 Z" style="stroke: rgb(0%,0%,0%); stroke-linecap: butt; stroke-width: 1;"/>
			<path d="M 680,120 L 680,200 Z" style="stroke: rgb(0%,0%,0%); stroke-linecap: butt; stroke-width: 1;"/>
			<path d="M 715,120 L 715,200 Z" style="stroke: rgb(0%,0%,0%); stroke-linecap: butt; stroke-width: 1;"/>
			<path d="M 750,120 L 750,200 Z" style="stroke: rgb(0%,0%,0%); stroke-linecap: butt; stroke-width: 1;"/>
			<path d="M 785,120 L 785,200 Z" style="stroke: rgb(0%,0%,0%); stroke-linecap: butt; stroke-width: 1;"/>
			<text x="360" y="60" style="font-family: Times-Roman; font-size: 10px;fill: rgb(0%,0%,0%); stroke:none;" transform="translate(0,120) scale(1,-1)">2150 mm Conveyor Length</text>
			<text x="850" y="160" style="font-family: Times-Roman; font-size: 10px;fill: rgb(0%,0%,0%); stroke:none;" transform="translate(0,320) scale(1,-1)">1200 mm Width</text>
		</g>
	</g>
</svg>
